<?xml version="1.0" encoding="utf-8"?>
<!-- Generator: Adobe Illustrator 23.1.0, SVG Export Plug-In . SVG Version: 6.00 Build 0)  -->
<svg version="1.1" xmlns="http://www.w3.org/2000/svg" xmlns:xlink="http://www.w3.org/1999/xlink" x="0px" y="0px"
	 viewBox="0 0 595.28 658.89" style="enable-background:new 0 0 595.28 658.89;" xml:space="preserve">
<style type="text/css">
	.st0{fill:#FFFFFF;}
</style>
<g id="Layer_1">
</g>
<g id="Layer_3">
</g>
<g id="Layer_2">
</g>
<g id="Layer_4">
	<g>
		<g>
			<g>
				<g>
					<path class="st0" d="M139.88,492.48v25.47c0,9.64,4.05,13.73,9.5,13.73c6.05,0,9.92-4.21,9.92-13.73v-25.47h5.32v25.09
						c0,13.21-6.6,18.64-15.43,18.64c-8.35,0-14.64-5.04-14.64-18.39v-25.34H139.88z"/>
					<path class="st0" d="M173.77,535.51v-43.03h5.75l13.07,21.77c3.03,5.04,5.38,9.58,7.32,13.98l0.12-0.06
						c-0.48-5.74-0.61-10.98-0.61-17.68v-18h4.96v43.03h-5.32l-12.95-21.83c-2.84-4.79-5.57-9.7-7.62-14.36l-0.18,0.06
						c0.3,5.43,0.42,10.6,0.42,17.75v18.39H173.77z"/>
					<path class="st0" d="M221.33,497.21h-12.4v-4.72h30.19v4.72h-12.46v38.3h-5.32V497.21z"/>
					<path class="st0" d="M276.94,513.55c0,14.81-8.53,22.66-18.94,22.66c-10.77,0-18.33-8.81-18.33-21.83
						c0-13.66,8.05-22.6,18.94-22.6C269.74,491.78,276.94,500.78,276.94,513.55z M245.3,514.25c0,9.19,4.72,17.43,13.01,17.43
						c8.35,0,13.07-8.11,13.07-17.88c0-8.55-4.23-17.49-13.01-17.49C249.65,496.31,245.3,504.8,245.3,514.25z"/>
					<path class="st0" d="M289.05,492.48v25.47c0,9.64,4.05,13.73,9.5,13.73c6.05,0,9.92-4.21,9.92-13.73v-25.47h5.32v25.09
						c0,13.21-6.6,18.64-15.43,18.64c-8.35,0-14.64-5.04-14.64-18.39v-25.34H289.05z"/>
					<path class="st0" d="M351.43,534.11c-1.94,1.02-5.81,2.04-10.77,2.04c-11.5,0-20.15-7.66-20.15-21.77
						c0-13.47,8.65-22.6,21.3-22.6c5.08,0,8.29,1.15,9.68,1.91l-1.27,4.53c-2-1.02-4.84-1.79-8.23-1.79
						c-9.56,0-15.91,6.45-15.91,17.75c0,10.53,5.75,17.3,15.67,17.3c3.21,0,6.47-0.7,8.59-1.79L351.43,534.11z"/>
					<path class="st0" d="M363.3,492.48v18h19.72v-18h5.32v43.03h-5.32v-20.17H363.3v20.17h-5.26v-43.03H363.3z"/>
					<path class="st0" d="M418.6,515.34h-15.85v15.51h17.67v4.66h-22.93v-43.03h22.02v4.66h-16.76v13.6h15.85V515.34z"/>
					<path class="st0" d="M427.26,493.06c3.21-0.51,7.02-0.89,11.19-0.89c7.56,0,12.95,1.85,16.52,5.36
						c3.63,3.51,5.75,8.49,5.75,15.45c0,7.02-2.06,12.77-5.87,16.73c-3.81,4.02-10.1,6.19-18.03,6.19c-3.75,0-6.9-0.19-9.56-0.51
						V493.06z M432.52,531.11c1.33,0.26,3.27,0.32,5.32,0.32c11.25,0,17.36-6.64,17.36-18.26c0.06-10.15-5.38-16.6-16.52-16.6
						c-2.72,0-4.78,0.26-6.17,0.57V531.11z"/>
				</g>
			</g>
			<g>
				<g>
					<path class="st0" d="M178.74,547.76v8.4h9.71v-8.4h2.62v20.07h-2.62v-9.41h-9.71v9.41h-2.59v-20.07H178.74z"/>
					<path class="st0" d="M220.17,557.59c0,6.91-4.2,10.57-9.32,10.57c-5.3,0-9.02-4.11-9.02-10.19c0-6.37,3.96-10.54,9.32-10.54
						C216.63,547.43,220.17,551.63,220.17,557.59z M204.6,557.92c0,4.29,2.32,8.13,6.4,8.13c4.11,0,6.43-3.78,6.43-8.34
						c0-3.99-2.09-8.16-6.4-8.16C206.74,549.55,204.6,553.51,204.6,557.92z"/>
					<path class="st0" d="M230.6,564.68c1.16,0.71,2.86,1.31,4.65,1.31c2.65,0,4.2-1.4,4.2-3.43c0-1.88-1.07-2.95-3.78-3.99
						c-3.28-1.16-5.3-2.86-5.3-5.69c0-3.13,2.59-5.45,6.49-5.45c2.05,0,3.54,0.48,4.44,0.98l-0.71,2.12c-0.65-0.36-2-0.95-3.81-0.95
						c-2.74,0-3.78,1.64-3.78,3.01c0,1.88,1.22,2.8,3.99,3.87c3.4,1.31,5.12,2.95,5.12,5.9c0,3.1-2.29,5.78-7.03,5.78
						c-1.94,0-4.05-0.57-5.12-1.28L230.6,564.68z"/>
					<path class="st0" d="M253.06,548c1.25-0.21,2.89-0.39,4.97-0.39c2.56,0,4.44,0.59,5.63,1.67c1.1,0.95,1.76,2.41,1.76,4.2
						c0,1.82-0.54,3.25-1.55,4.29c-1.37,1.46-3.6,2.2-6.13,2.2c-0.77,0-1.49-0.03-2.09-0.18v8.04h-2.59V548z M255.65,557.68
						c0.57,0.15,1.28,0.21,2.14,0.21c3.13,0,5.03-1.52,5.03-4.29c0-2.65-1.88-3.93-4.74-3.93c-1.13,0-2,0.09-2.44,0.21V557.68z"/>
					<path class="st0" d="M278.94,547.76v20.07h-2.59v-20.07H278.94z"/>
					<path class="st0" d="M294.7,549.97h-6.11v-2.2h14.86v2.2h-6.14v17.87h-2.62V549.97z"/>
					<path class="st0" d="M314.12,561.52l-2.08,6.31h-2.68l6.82-20.07h3.13l6.85,20.07h-2.77l-2.14-6.31H314.12z M320.7,559.5
						l-1.96-5.78c-0.45-1.31-0.74-2.5-1.04-3.66h-0.06c-0.3,1.19-0.62,2.41-1.01,3.63l-1.96,5.81H320.7z"/>
					<path class="st0" d="M336.51,547.76h2.59v17.9h8.58v2.17h-11.17V547.76z"/>
					<path class="st0" d="M360.61,547.76v20.07h-2.59v-20.07H360.61z"/>
					<path class="st0" d="M376.37,549.97h-6.1v-2.2h14.86v2.2h-6.13v17.87h-2.62V549.97z"/>
					<path class="st0" d="M400.08,567.84v-8.52l-6.34-11.56h2.95l2.83,5.54c0.77,1.52,1.37,2.74,2,4.14h0.06
						c0.56-1.31,1.25-2.62,2.02-4.14l2.89-5.54h2.95l-6.73,11.53v8.55H400.08z"/>
				</g>
			</g>
		</g>
		<g>
			<polygon class="st0" points="447.82,177.44 409.23,201.08 398.96,207.37 391.93,203.34 342.56,175.06 322.95,163.83 
				322.95,452.8 297.63,467.42 271.82,452.53 271.82,163.29 253.51,173.79 202.28,203.12 193.04,208.4 184.06,202.36 147.19,177.59 
				184.06,156.3 202.28,145.78 229.62,130 246.66,120.15 253.51,116.19 271.82,105.64 297.63,90.73 322.95,105.35 342.56,116.66 
				347.89,119.75 364.93,129.58 391.93,145.18 409.23,155.16 			"/>
			<polygon class="st0" points="460.76,187.34 460.76,373.26 409.23,403.01 409.23,341.54 391.93,341.54 391.93,412.99 
				342.56,441.49 342.56,194.66 391.93,222.93 391.93,290.31 409.23,290.31 409.23,214.2 410.12,213.75 			"/>
			<polygon class="st0" points="253.51,193.38 253.51,441.96 202.28,412.37 184.06,401.85 134.52,373.26 134.52,184.9 
				134.61,184.85 184.06,215.92 184.06,341.83 202.28,352.19 202.28,222.71 			"/>
		</g>
	</g>
</g>
</svg>
